<svg width="23" height="23" viewBox="0 0 23 23" fill="none" xmlns="http://www.w3.org/2000/svg">
<path d="M11.5 16.8606C11.2519 16.8606 11.0508 17.0617 11.0508 17.3098C11.0508 17.3104 11.0508 17.3111 11.0508 17.3116C11.0508 17.3122 11.0508 17.3129 11.0508 17.3134V17.317C11.0508 17.5651 11.2519 17.7663 11.5 17.7663C11.7481 17.7663 11.9492 17.5651 11.9492 17.317C11.9492 17.3164 11.9492 17.3159 11.9492 17.3152C11.9492 17.3146 11.9492 17.3141 11.9492 17.3134C11.9492 17.3128 11.9492 17.3122 11.9492 17.3116C11.9492 17.3111 11.9492 17.3104 11.9492 17.3098C11.9492 17.0617 11.7481 16.8606 11.5 16.8606Z" fill="#303841"/>
<path d="M18.5977 0H4.40234C1.97486 0 0 1.97486 0 4.40234V18.5977C0 21.0251 1.97486 23 4.40234 23H11.5C11.7481 23 11.9492 22.7989 11.9492 22.5508V19.0693C11.9492 18.8212 11.7481 18.6201 11.5 18.6201C11.2519 18.6201 11.0508 18.8212 11.0508 19.0693V22.1016H4.40234C2.4703 22.1016 0.898438 20.5297 0.898438 18.5977V4.40234C0.898438 2.4703 2.4703 0.898438 4.40234 0.898438H18.5977C20.5297 0.898438 22.1016 2.4703 22.1016 4.40234V18.5977C22.1016 20.5297 20.5297 22.1016 18.5977 22.1016H15.7227V14.1729H18.3273C18.558 14.1729 18.7512 13.9982 18.7742 13.7686L19.0973 10.5588C19.11 10.4324 19.0687 10.3066 18.9835 10.2124C18.8983 10.1183 18.7773 10.0646 18.6503 10.0646H15.7227V8.37905C15.7227 8.07399 15.8198 7.96056 16.0812 7.96056H18.6301C18.8782 7.96056 19.0794 7.75945 19.0794 7.51134V4.38208C19.0794 4.13398 18.8782 3.93287 18.6301 3.93287H15.2827C13.386 3.93287 12.3801 4.76599 11.8702 5.46488C11.1572 6.44229 11.0507 7.5966 11.0507 8.19766V10.0847H8.84956C8.60146 10.0847 8.40035 10.2858 8.40035 10.5339V13.7236C8.40035 13.9717 8.60146 14.1729 8.84956 14.1729H11.0507V15.4531C11.0507 15.7012 11.2519 15.9023 11.5 15.9023C11.7481 15.9023 11.9492 15.7012 11.9492 15.4531V13.7236C11.9492 13.4755 11.7481 13.2744 11.5 13.2744H9.29878V10.9831H11.5C11.7481 10.9831 11.9492 10.782 11.9492 10.5339V8.19761C11.9492 7.18543 12.274 4.83126 15.2827 4.83126H18.1809V7.06208H16.0812C15.5013 7.06208 14.8242 7.40699 14.8242 8.37901V10.5137C14.8242 10.7618 15.0253 10.963 15.2734 10.963H18.1536L17.921 13.2744H15.2734C15.0253 13.2744 14.8242 13.4755 14.8242 13.7236V22.5508C14.8242 22.7989 15.0253 23 15.2734 23H18.5977C21.0251 23 23 21.0251 23 18.5977V4.40234C23 1.97486 21.0251 0 18.5977 0Z" fill="#303841"/>
<path d="M2.60547 4.60449C2.35737 4.60449 2.15625 4.80561 2.15625 5.05371V8.80469C2.15625 9.05279 2.35737 9.25391 2.60547 9.25391C2.85357 9.25391 3.05469 9.05279 3.05469 8.80469V5.05371C3.05469 4.80561 2.85357 4.60449 2.60547 4.60449Z" fill="#303841"/>
<path d="M2.60547 10.3044C2.35737 10.3044 2.15625 10.5055 2.15625 10.7536V10.7589C2.15625 11.007 2.35737 11.2082 2.60547 11.2082C2.85357 11.2082 3.05469 11.007 3.05469 10.7589V10.7536C3.05469 10.5055 2.85357 10.3044 2.60547 10.3044Z" fill="#303841"/>
</svg>
