<svg width="23" height="19" viewBox="0 0 23 19" fill="none" xmlns="http://www.w3.org/2000/svg">
<path d="M6.41051 5.33616L6.4313 5.34573C6.49195 5.37349 6.55551 5.38666 6.61813 5.38666C6.78839 5.38666 6.95127 5.28935 7.02688 5.12445C7.1302 4.8989 7.03114 4.63229 6.80559 4.52892L6.78699 4.52043C6.56171 4.41639 6.29483 4.51477 6.19088 4.74005C6.08689 4.96529 6.18522 5.23221 6.41051 5.33616Z" fill="#303841"/>
<path d="M22.8943 2.35797C22.7655 2.20515 22.5513 2.15574 22.3686 2.23677C22.0952 2.35802 21.8169 2.46475 21.5346 2.55666C21.9005 2.09303 22.1849 1.56416 22.3703 0.992037C22.428 0.814282 22.3695 0.619411 22.2236 0.502704C22.0777 0.385997 21.8747 0.371847 21.714 0.467036C20.9294 0.931932 20.0861 1.26664 19.2038 1.46367C18.2821 0.577993 17.0382 0.0745544 15.7516 0.0745544C13.0048 0.0745544 10.7702 2.30919 10.7702 5.05598C10.7702 5.23625 10.78 5.41773 10.7995 5.59922C10.0933 5.53197 9.39419 5.40502 8.71443 5.22035C8.47504 5.1553 8.2282 5.29667 8.16315 5.5361C8.0981 5.77553 8.23947 6.02233 8.4789 6.08738C9.39944 6.33746 10.3528 6.4888 11.3124 6.53714C11.4531 6.54424 11.588 6.48534 11.6785 6.37802C11.769 6.27071 11.8041 6.12732 11.7734 5.99035C11.7039 5.67981 11.6686 5.3654 11.6686 5.05598C11.6686 2.80459 13.5003 0.97299 15.7516 0.97299C16.8767 0.97299 17.9617 1.44229 18.7284 2.26054C18.834 2.37329 18.9902 2.42392 19.1419 2.39436C19.7587 2.27451 20.3592 2.09437 20.938 1.85611C20.6135 2.30645 20.1992 2.68959 19.7164 2.97857C19.5346 3.08741 19.4535 3.30852 19.5219 3.50905C19.5904 3.70958 19.7895 3.83509 20 3.81012C20.4149 3.76088 20.8259 3.68407 21.2307 3.58025C20.8625 3.9655 20.4586 4.31665 20.0216 4.63093C19.9012 4.71754 19.8312 4.85796 19.8347 5.0062L19.8484 5.58799C19.8456 11.7035 15.1904 18.0273 7.40199 18.0273C5.62215 18.0273 3.87824 17.6489 2.27422 16.9225C4.16246 16.7798 5.93444 16.0947 7.43703 14.9198C7.58667 14.8027 7.64655 14.6043 7.58653 14.424C7.52652 14.2438 7.35963 14.1207 7.1697 14.1168C5.66599 14.0854 4.32068 13.2371 3.63342 11.9433C3.68243 11.9446 3.7318 11.9453 3.78143 11.9453C4.22706 11.9453 4.66716 11.8886 5.08951 11.7767C5.2913 11.7232 5.42966 11.5379 5.4235 11.3292C5.41735 11.1206 5.2683 10.9437 5.06373 10.9022C3.3881 10.5626 2.11821 9.20706 1.84436 7.55897C2.33962 7.74001 2.85295 7.83807 3.37808 7.8515C3.57812 7.85627 3.75745 7.72878 3.81787 7.53795C3.8782 7.34712 3.80506 7.1394 3.63849 7.02849C2.50116 6.27134 1.82217 5.00212 1.82217 3.63335C1.82217 3.12712 1.91498 2.62894 2.09359 2.16477C2.82595 2.9734 3.65278 3.68878 4.55885 4.29698C4.76486 4.43529 5.04392 4.38035 5.18218 4.17439C5.3205 3.96842 5.26556 3.68932 5.05959 3.55105C4.03452 2.86298 3.11812 2.0278 2.33576 1.06872C2.24277 0.954707 2.0997 0.893658 1.95316 0.904754C1.80649 0.916074 1.67465 0.998461 1.60021 1.12537C1.15769 1.87983 0.92378 2.74709 0.92378 3.63339C0.92378 4.72859 1.2801 5.77149 1.91691 6.62042C1.79571 6.56746 1.67577 6.5083 1.5574 6.44294C1.41823 6.36612 1.24883 6.36855 1.11191 6.44932C0.975036 6.53013 0.891032 6.6772 0.891032 6.83618V6.89144C0.891032 8.55341 1.72042 10.0632 3.01673 10.9768C3.01404 10.9764 3.01134 10.9759 3.00864 10.9753C2.85299 10.946 2.69325 11.0007 2.58836 11.1195C2.48351 11.2384 2.44901 11.4036 2.49761 11.5545C3.02468 13.1907 4.34651 14.4127 5.95848 14.8454C4.62489 15.6379 3.11318 16.0522 1.52834 16.0522C1.18437 16.0522 0.847682 16.0333 0.498955 15.9945C0.291686 15.9715 0.0955122 16.0943 0.0258385 16.291C-0.0438801 16.4878 0.0311393 16.7066 0.206873 16.8192C2.35723 18.1974 4.84527 18.9258 7.40204 18.9258C9.45842 18.9258 11.3831 18.5173 13.1224 17.7114C14.7179 16.9723 16.1277 15.916 17.3127 14.5719C19.4951 12.0963 20.7468 8.81984 20.7468 5.58259C20.7468 5.57909 20.7468 5.57554 20.7467 5.57204L20.7384 5.21832C21.594 4.57055 22.3287 3.7904 22.9245 2.89659C23.0354 2.73033 23.023 2.5108 22.8943 2.35797Z" fill="#303841"/>
</svg>
