<svg viewBox="0 0 22 22" xmlns="http://www.w3.org/2000/svg">
<path d="M20.3897 2.00002H3.99999V2.1435L3.79491 1.44042C3.54783 0.592266 2.75831 0 1.875 0H0.500016C0.223641 0 0 0.223641 0 0.500016C0 0.776391 0.223641 1.00003 0.500016 1.00003H1.875C2.31689 1.00003 2.71144 1.29595 2.83496 1.72027L5.94727 12.3907L4.35253 14.3838C4.125 14.6685 3.99999 15.0255 3.99999 15.3897C3.99999 16.2779 4.72214 17 5.61033 17H19.5C19.7764 17 20 16.7764 20 16.5C20 16.2236 19.7764 16 19.5 16H5.61033C5.27391 16 4.99997 15.7261 4.99997 15.3896C4.99997 15.2514 5.04732 15.1157 5.13375 15.0083L6.74058 13H16.5478C17.3188 13 18.0293 12.5493 18.3579 11.8516L21.8472 4.437C21.9473 4.22363 22 3.98681 22 3.75192V3.61031C22 2.72217 21.2778 2.00002 20.3897 2.00002ZM21 3.75197C21 3.84132 20.98 3.93117 20.9419 4.01175L17.4531 11.4258C17.2886 11.7744 16.9336 12 16.5478 12H6.87502L4.24983 3H20.3897C20.7261 3 21 3.27394 21 3.61036V3.75197Z" />
<path d="M6.00002 18C4.897 18 4 18.897 4 20C4 21.1031 4.89695 22 6.00002 22C7.10308 22 8.00004 21.1031 8.00004 20C8.00004 18.897 7.10304 18 6.00002 18ZM6.00002 21C5.44877 21 5.00003 20.5513 5.00003 20C5.00003 19.4488 5.44877 19 6.00002 19C6.55127 19 7 19.4488 7 20C7 20.5513 6.55127 21 6.00002 21Z" />
<path d="M18 18C16.897 18 16 18.897 16 20C16 21.1031 16.897 22 18 22C19.1031 22 20 21.1031 20 20C20 18.897 19.103 18 18 18ZM18 21C17.4488 21 17 20.5513 17 20C17 19.4488 17.4488 19 18 19C18.5513 19 19 19.4488 19 20C19 20.5513 18.5513 21 18 21Z" />
</svg>
