<svg width="15" height="13" viewBox="0 0 15 13" fill="none" xmlns="http://www.w3.org/2000/svg">
<path d="M13.75 0.875H1.25001C0.560596 0.875 0 1.4356 0 2.12501V10.875C0 11.5644 0.560596 12.125 1.25001 12.125H13.75C14.4394 12.125 15 11.5644 15 10.875V2.12501C15 1.4356 14.4394 0.875 13.75 0.875ZM1.25001 1.49999H13.75C13.7961 1.49999 13.8366 1.51678 13.8799 1.52627C12.7977 2.51671 9.20927 5.79948 7.95352 6.9309C7.85525 7.0194 7.69688 7.12499 7.50003 7.12499C7.30318 7.12499 7.1448 7.0194 7.04622 6.93061C5.79059 5.79937 2.20198 2.51642 1.11996 1.52633C1.16326 1.51684 1.20393 1.49999 1.25001 1.49999ZM0.62499 10.875V2.12501C0.62499 2.06378 0.643447 2.00823 0.659971 1.95228C1.48825 2.71036 3.99208 5.00091 5.6156 6.47727C3.99735 7.86731 1.49288 10.2418 0.658008 11.0379C0.643271 10.9847 0.62499 10.9328 0.62499 10.875ZM13.75 11.5H1.25001C1.20009 11.5 1.1557 11.4826 1.10909 11.4715C1.9718 10.6491 4.49221 8.26095 6.082 6.9009C6.28925 7.0889 6.47856 7.26031 6.6278 7.39478C6.88538 7.62734 7.18687 7.75001 7.5 7.75001C7.81313 7.75001 8.11462 7.62731 8.37188 7.39508C8.52117 7.26055 8.71064 7.08898 8.918 6.9009C10.5079 8.2608 13.0279 10.6487 13.8909 11.4715C13.8443 11.4826 13.8 11.5 13.75 11.5ZM14.375 10.875C14.375 10.9327 14.3567 10.9847 14.342 11.0379C13.5068 10.2414 11.0026 7.86717 9.38443 6.47729C11.008 5.00094 13.5115 2.7106 14.34 1.95222C14.3566 2.00817 14.375 2.06375 14.375 2.12498V10.875Z" fill="#303841"/>
</svg>
