<svg width="38" height="38" viewBox="0 0 38 38" fill="none" xmlns="http://www.w3.org/2000/svg">
<path d="M12.466 26.0118C14.031 28.2183 15.5935 30.1918 16.629 31.4629C16.7797 31.6478 16.921 31.8194 17.0578 31.9847H13.9329C13.5831 31.9847 13.2996 32.2682 13.2996 32.618C13.2996 32.9678 13.5831 33.2513 13.9329 33.2513H24.0662C24.416 33.2513 24.6995 32.9678 24.6995 32.618C24.6995 32.2682 24.416 31.9847 24.0662 31.9847H20.9413C21.0781 31.8194 21.2194 31.6478 21.3708 31.4629C22.4056 30.1962 23.9675 28.2183 25.5331 26.0118C27.0864 23.8665 28.4845 21.613 29.7169 19.2687C31.0101 16.729 31.6663 14.6206 31.6663 13.0019C31.6706 9.63818 30.3358 6.41113 27.9568 4.03315C27.7979 3.86839 27.5625 3.80218 27.341 3.86C27.1196 3.91782 26.9465 4.0906 26.8884 4.31199C26.8303 4.53339 26.8961 4.76889 27.0606 4.92801C29.202 7.06879 30.4034 9.97379 30.3996 13.0018C30.3996 14.4192 29.7903 16.3344 28.5883 18.6936C27.3838 20.9836 26.0173 23.1848 24.4995 25.2803C22.9554 27.4583 21.412 29.4096 20.3892 30.6636C20.0491 31.0804 19.7431 31.4489 19.4822 31.7606C19.3604 31.8997 19.1845 31.9794 18.9996 31.9794C18.8147 31.9794 18.6388 31.8996 18.5171 31.7606C18.2561 31.449 17.9502 31.0804 17.6101 30.6636C16.5873 29.4103 15.0438 27.4589 13.4998 25.2803C11.9819 23.1848 10.6155 20.9836 9.41097 18.6936C8.20765 16.3344 7.59965 14.4192 7.59965 13.0018C7.59928 8.41438 10.3427 4.27162 14.5664 2.48146C17.4044 1.29143 20.6014 1.29143 23.4394 2.48146C23.6478 2.56978 23.8875 2.54031 24.0682 2.40397C24.2489 2.26771 24.3432 2.04535 24.3155 1.82068C24.2878 1.59602 24.1424 1.4032 23.934 1.31488C17.4845 -1.4054 10.0509 1.61636 7.3286 8.06496C6.66843 9.62697 6.32984 11.306 6.33303 13.0018C6.33303 14.6206 6.9892 16.729 8.28247 19.2718C9.51465 21.6151 10.9129 23.8675 12.466 26.0118Z" fill="#D72323"/>
<path d="M19.0001 7.28469C19.3499 7.28469 19.6334 7.00117 19.6334 6.65138C19.6334 6.30158 19.3499 6.01807 19.0001 6.01807C15.9787 6.01799 13.3779 8.15238 12.7884 11.1158C12.1988 14.0792 13.7848 17.0463 16.5763 18.2027C19.3677 19.359 22.5873 18.3824 24.266 15.8701C25.9446 13.3579 25.6149 10.0096 23.4784 7.8731C23.3194 7.70848 23.0839 7.64242 22.8625 7.70039C22.6411 7.75835 22.4682 7.93128 22.4102 8.15268C22.3522 8.37415 22.4183 8.60957 22.5829 8.76862C24.2922 10.4778 24.556 13.1563 23.2132 15.1662C21.8703 17.176 19.2947 17.9574 17.0615 17.0325C14.8283 16.1076 13.5595 13.7339 14.0309 11.3631C14.5024 8.99232 16.583 7.28476 19.0001 7.28469Z" fill="#D72323"/>
<path d="M37.7616 34.8798L33.8666 27.9131C33.5144 27.2941 32.8554 26.9136 32.1433 26.9181H27.6295C27.2797 26.9181 26.9962 27.2016 26.9962 27.5514C26.9962 27.9012 27.2797 28.1847 27.6295 28.1847H32.1433C32.3968 28.1798 32.6333 28.312 32.762 28.5305L36.6558 35.4972C36.7619 35.6784 36.7596 35.9033 36.6501 36.0824C36.5207 36.2962 36.2868 36.4242 36.037 36.4181H1.96359C1.71406 36.4241 1.48042 36.2959 1.35113 36.0824C1.24159 35.9033 1.23943 35.6784 1.34542 35.4972L5.23917 28.5305C5.36764 28.3121 5.60396 28.1799 5.85727 28.1847H10.371C10.7208 28.1847 11.0044 27.9012 11.0044 27.5514C11.0044 27.2016 10.7208 26.9181 10.371 26.9181H5.85734C5.14484 26.9134 4.48533 27.2938 4.13279 27.9131L0.238366 34.8798C-0.0863421 35.4533 -0.0788459 36.1569 0.258034 36.7235C0.61295 37.3267 1.26378 37.6936 1.96359 37.6849H36.037C36.7366 37.6933 37.3872 37.3266 37.742 36.7235C38.0789 36.1569 38.0864 35.4533 37.7616 34.8798Z" fill="#D72323"/>
<path d="M31.0336 30.0848H28.5003C28.3752 30.085 28.253 30.122 28.1488 30.1912L26.2488 31.4579C25.9578 31.6521 25.8792 32.0453 26.0733 32.3364C26.2675 32.6274 26.6608 32.7059 26.9518 32.5118L28.6903 31.3515H31.0336C31.3834 31.3515 31.6669 31.068 31.6669 30.7182C31.6669 30.3683 31.3834 30.0848 31.0336 30.0848Z" fill="#D72323"/>
<path d="M27.2334 34.5181C27.2334 34.8679 27.5169 35.1514 27.8667 35.1514H32.9334C33.2832 35.1514 33.5667 34.8679 33.5667 34.5181C33.5667 34.1683 33.2832 33.8848 32.9334 33.8848H27.8667C27.5169 33.8848 27.2334 34.1683 27.2334 34.5181Z" fill="#D72323"/>
<path d="M11.3996 32.6181C11.6789 32.6185 11.9253 32.4359 12.0065 32.1687C12.0876 31.9015 11.9841 31.6127 11.7518 31.4578L9.85181 30.1911C9.74746 30.1218 9.62492 30.0848 9.49964 30.0847H6.96632C6.61652 30.0847 6.33301 30.3683 6.33301 30.718C6.33301 31.0678 6.6166 31.3513 6.96632 31.3513H9.30964L11.0501 32.5116C11.1536 32.5808 11.2753 32.6178 11.3996 32.6181Z" fill="#D72323"/>
<path d="M5.0669 33.8848C4.71711 33.8848 4.43359 34.1683 4.43359 34.5181C4.43359 34.8679 4.71711 35.1514 5.0669 35.1514H10.1336C10.4834 35.1514 10.7669 34.8679 10.7669 34.5181C10.7669 34.1683 10.4834 33.8848 10.1336 33.8848H5.0669Z" fill="#D72323"/>
</svg>
