<svg width="15" height="15" viewBox="0 0 15 15" fill="none" xmlns="http://www.w3.org/2000/svg">
<path d="M14.6064 11.5726L11.5703 9.54794C11.1851 9.29306 10.6686 9.37693 10.3838 9.74065L9.49938 10.8777C9.38573 11.0276 9.17913 11.0711 9.01471 10.9797L8.84648 10.887C8.28881 10.583 7.59493 10.2046 6.19688 8.80605C4.79884 7.4075 4.41965 6.71309 4.11568 6.15645L4.02344 5.98822C3.93084 5.82383 3.97349 5.61635 4.12341 5.50179L5.25973 4.61768C5.62331 4.33281 5.70729 3.8165 5.45271 3.4311L3.42801 0.395049C3.1671 0.00258732 2.64364 -0.115227 2.23973 0.127578L0.970159 0.890209C0.571253 1.12473 0.278592 1.50453 0.153542 1.95004C-0.303626 3.61579 0.0402969 6.49062 4.27518 10.726C7.64393 14.0945 10.1518 15.0004 11.8756 15.0004C12.2723 15.0021 12.6674 14.9504 13.0504 14.8469C13.496 14.722 13.8759 14.4293 14.1102 14.0303L14.8736 12.7615C15.1168 12.3575 14.999 11.8337 14.6064 11.5726ZM14.4429 12.505L13.6813 13.7746C13.513 14.0626 13.2398 14.2743 12.9189 14.3655C11.3811 14.7877 8.69451 14.438 4.62885 10.3723C0.563198 6.30666 0.213533 3.6203 0.635726 2.0823C0.727002 1.76102 0.939021 1.48745 1.22738 1.31891L2.49694 0.557271C2.6722 0.451817 2.89939 0.502933 3.01261 0.67324L4.11246 2.32449L5.03558 3.70903C5.14613 3.8762 5.10981 4.10026 4.9521 4.22396L3.81552 5.10807C3.46963 5.37255 3.37086 5.8511 3.58381 6.23091L3.67406 6.39489C3.99353 6.9808 4.39071 7.70968 5.84074 9.15949C7.29078 10.6093 8.01944 11.0065 8.60508 11.3259L8.76929 11.4164C9.14907 11.6293 9.62765 11.5306 9.89214 11.1847L10.7762 10.0481C10.9 9.89048 11.1239 9.85419 11.2912 9.96462L14.327 11.9893C14.4974 12.1025 14.5485 12.3298 14.4429 12.505Z" fill="#303841"/>
<path d="M8.49947 2.50129C10.8452 2.50389 12.7462 4.40489 12.7488 6.75067C12.7488 6.88873 12.8607 7.00062 12.9988 7.00062C13.1369 7.00062 13.2487 6.88873 13.2487 6.75067C13.2458 4.1289 11.1212 2.00425 8.49947 2.00138C8.36141 2.00138 8.24951 2.11328 8.24951 2.25133C8.24951 2.38939 8.36141 2.50129 8.49947 2.50129Z" fill="#303841"/>
<path d="M8.49947 4.00107C10.0173 4.00285 11.2473 5.23285 11.2491 6.75067C11.2491 6.88872 11.361 7.00062 11.499 7.00062C11.6371 7.00062 11.749 6.88872 11.749 6.75067C11.7469 4.95685 10.2933 3.50321 8.49947 3.50116C8.36141 3.50116 8.24951 3.61306 8.24951 3.75111C8.24951 3.88917 8.36141 4.00107 8.49947 4.00107Z" fill="#303841"/>
<path d="M8.49947 5.50084C9.18936 5.50166 9.74844 6.06074 9.74929 6.75067C9.74929 6.88873 9.86122 7.00062 9.99924 7.00062C10.1373 7.00062 10.2492 6.88873 10.2492 6.75067C10.2481 5.78478 9.46536 5.00202 8.49947 5.00094C8.36141 5.00094 8.24951 5.11284 8.24951 5.25089C8.24951 5.38895 8.36141 5.50084 8.49947 5.50084Z" fill="#303841"/>
</svg>
