<svg width="46" height="81" viewBox="0 0 46 81" fill="none" xmlns="http://www.w3.org/2000/svg">
<path d="M9.48843 0.430166C9.17372 -0.0236791 8.55068 -0.136471 8.09683 0.17824L0.700992 5.30674C0.247147 5.62145 0.134355 6.24449 0.449066 6.69834C0.763776 7.15218 1.38681 7.26497 1.84066 6.95026L8.41474 2.39159L12.9734 8.96567C13.2881 9.41952 13.9112 9.53231 14.365 9.2176C14.8188 8.90289 14.9316 8.27985 14.6169 7.82601L9.48843 0.430166ZM45.1101 71.3315C45.2932 70.8104 45.0192 70.2396 44.4981 70.0565L36.007 67.0732C35.4859 66.8901 34.9151 67.1641 34.732 67.6851C34.549 68.2062 34.823 68.777 35.344 68.9601L42.8917 71.612L40.2398 79.1597C40.0567 79.6807 40.3307 80.2515 40.8518 80.4346C41.3729 80.6177 41.9437 80.3437 42.1267 79.8226L45.1101 71.3315ZM8.66667 1C7.68266 0.821861 7.6826 0.822184 7.6825 0.822728C7.68242 0.823204 7.68228 0.823968 7.68211 0.824918C7.68177 0.826818 7.68126 0.829598 7.68061 0.833251C7.67929 0.840556 7.67735 0.851354 7.67479 0.865595C7.66969 0.894077 7.66214 0.93633 7.65226 0.991959C7.63251 1.10322 7.60346 1.26797 7.56608 1.48306C7.49132 1.91323 7.38321 2.54475 7.24945 3.3522C6.98194 4.96703 6.61178 7.28596 6.20057 10.1057C5.37836 15.7437 4.39102 23.3907 3.73251 31.4182C3.07453 39.4394 2.74215 47.8713 3.23936 55.0689C3.48794 58.6675 3.94557 61.9847 4.68479 64.8008C5.4202 67.6023 6.45544 69.9915 7.91409 71.6585L9.41924 70.3415C8.25289 69.0085 7.31938 66.9602 6.61925 64.293C5.92292 61.6403 5.4782 58.4575 5.2346 54.9311C4.74743 47.8787 5.0713 39.5606 5.72582 31.5818C6.37981 23.6093 7.36122 16.0063 8.17964 10.3943C8.58874 7.58904 8.95686 5.28297 9.22256 3.67905C9.3554 2.87713 9.46262 2.25083 9.53654 1.82553C9.5735 1.61288 9.60213 1.4505 9.62147 1.34154C9.63114 1.28706 9.63849 1.24594 9.6434 1.21857C9.64585 1.20489 9.6477 1.19465 9.64891 1.18789C9.64952 1.18451 9.64997 1.18201 9.65027 1.18038C9.65041 1.17957 9.65052 1.17901 9.65059 1.1786C9.65065 1.17826 9.65067 1.17814 8.66667 1ZM7.91409 71.6585C13.554 78.1041 22.9519 77.9877 30.5487 76.4809C34.3989 75.7172 37.906 74.5739 40.4465 73.6242C41.7183 73.1488 42.7517 72.7204 43.4691 72.4099C43.8279 72.2547 44.1079 72.1288 44.2994 72.0412C44.3952 71.9973 44.4689 71.963 44.5193 71.9394C44.5445 71.9276 44.5639 71.9184 44.5773 71.9121C44.584 71.9089 44.5892 71.9064 44.5929 71.9046C44.5947 71.9038 44.5962 71.9031 44.5973 71.9025C44.5978 71.9023 44.5983 71.902 44.5986 71.9019C44.599 71.9017 44.5994 71.9015 44.1667 71C43.7339 70.0985 43.7341 70.0984 43.7341 70.0984C43.734 70.0984 43.734 70.0984 43.7338 70.0986C43.7333 70.0988 43.7325 70.0992 43.7313 70.0997C43.729 70.1008 43.7251 70.1027 43.7197 70.1052C43.709 70.1103 43.6924 70.1182 43.6699 70.1287C43.6251 70.1498 43.5571 70.1814 43.4672 70.2225C43.2874 70.3048 43.0201 70.425 42.6748 70.5744C41.984 70.8734 40.9822 71.2887 39.7462 71.7508C37.2711 72.6761 33.8719 73.7828 30.1596 74.5191C22.6314 76.0123 14.2794 75.8959 9.41924 70.3415L7.91409 71.6585Z" fill="#EEEEEE"/>
</svg>
