<svg width="14" height="14" viewBox="0 0 14 14" fill="none" xmlns="http://www.w3.org/2000/svg">
<g clip-path="url(#clip0)">
<path d="M13.9221 5.2979C13.7157 4.66251 13.1532 4.25192 12.4893 4.25192H9.69193C9.50643 4.25192 9.35191 4.14514 9.29854 3.98086L8.43379 1.30219C8.22817 0.669369 7.6654 0.260498 7.00005 0.260498C6.33469 0.260498 5.7719 0.669369 5.56598 1.30317L4.70186 3.97988C4.64816 4.14514 4.49364 4.25192 4.30814 4.25192H1.51074C0.846776 4.25192 0.284315 4.66249 0.0778695 5.2979C-0.129396 5.93578 0.0852523 6.60119 0.624635 6.99308L2.8878 8.63737C3.03332 8.74308 3.09378 8.9291 3.03816 9.10019L2.17371 11.7607C1.96809 12.3935 2.18306 13.055 2.72135 13.4461C2.9905 13.6417 3.29896 13.7394 3.60743 13.7394C3.91592 13.7394 4.22441 13.6417 4.49353 13.4461L6.75669 11.8018C6.90219 11.6961 7.09778 11.6961 7.24333 11.8019L9.50646 13.4461C10.0447 13.8372 10.7404 13.8372 11.2786 13.4461C11.8169 13.0551 12.0319 12.3935 11.8263 11.7607L11.2345 9.93934C11.1412 9.65215 10.8327 9.49498 10.5455 9.58827C10.2583 9.6816 10.1012 9.99003 10.1945 10.2773L10.7862 12.0986C10.8725 12.364 10.6929 12.5199 10.6358 12.5614C10.5787 12.6029 10.375 12.7255 10.1492 12.5614L7.88607 10.9172C7.35609 10.5321 6.6439 10.5321 6.11389 10.9172L3.85076 12.5614C3.62496 12.7255 3.42116 12.6029 3.3641 12.5614C3.307 12.5199 3.12749 12.364 3.21371 12.0986L4.07815 9.4381C4.28063 8.81505 4.06054 8.13771 3.53054 7.75266L1.26738 6.10837C1.03988 5.9431 1.09541 5.70491 1.11786 5.63584C1.14001 5.5677 1.23374 5.34548 1.51071 5.34548H4.30808C4.96592 5.34548 5.54208 4.93251 5.74215 4.31683L6.60627 1.64015C6.69251 1.3747 6.92945 1.35408 6.99999 1.35408C7.07054 1.35408 7.30747 1.3747 7.39339 1.63917L8.25816 4.31782C8.45791 4.93251 9.03404 5.34548 9.69191 5.34548H12.4893C12.7662 5.34548 12.86 5.5677 12.8821 5.63584C12.9045 5.70491 12.9601 5.9431 12.7326 6.10837L11.1894 7.22954C10.9452 7.40709 10.891 7.74897 11.0685 7.99331C11.246 8.2376 11.5879 8.29171 11.8322 8.11428L13.3754 6.9931C13.9148 6.60119 14.1294 5.9358 13.9221 5.2979Z" fill="#3A4750"/>
</g>
<defs>
<clipPath id="clip0">
<rect width="14" height="14" fill="white"/>
</clipPath>
</defs>
</svg>
