<svg width="136" height="23" viewBox="0 0 136 23" fill="none" xmlns="http://www.w3.org/2000/svg">
<g clip-path="url(#clip0)">
<path d="M21.8776 8.22192C21.5532 7.18486 20.6693 6.5147 19.626 6.5147H15.2302C14.9387 6.5147 14.6958 6.34042 14.612 6.07228L13.2531 1.70022C12.93 0.667349 12.0456 0 11.0001 0C9.9545 0 9.07012 0.667349 8.74653 1.70182L7.38863 6.07068C7.30424 6.34042 7.06142 6.5147 6.76992 6.5147H2.37401C1.33065 6.5147 0.44678 7.18482 0.122366 8.22192C-0.203337 9.26305 0.133968 10.3491 0.981568 10.9887L4.53796 13.6725C4.76664 13.8451 4.86164 14.1487 4.77424 14.4279L3.41583 18.7703C3.09271 19.8031 3.43053 20.8829 4.27641 21.5212C4.69935 21.8404 5.18408 22 5.66881 22C6.15358 22 6.63835 21.8404 7.06125 21.5212L10.6176 18.8375C10.8463 18.6649 11.1536 18.6648 11.3824 18.8375L14.9387 21.5212C15.7846 22.1595 16.8777 22.1596 17.7235 21.5212C18.5694 20.883 18.9072 19.8031 18.5841 18.7703L17.6542 15.7976C17.5076 15.3288 17.0228 15.0723 16.5716 15.2246C16.1202 15.3769 15.8732 15.8803 16.0199 16.3491L16.9498 19.3218C17.0853 19.755 16.8032 20.0095 16.7134 20.0773C16.6237 20.145 16.3035 20.3451 15.9487 20.0772L12.3924 17.3936C11.5596 16.765 10.4404 16.765 9.60753 17.3935L6.05119 20.0772C5.69635 20.345 5.37611 20.145 5.28643 20.0773C5.19671 20.0095 4.91462 19.755 5.0501 19.3218L6.40851 14.9795C6.7267 13.9625 6.38084 12.857 5.54798 12.2285L1.99159 9.54475C1.63409 9.27501 1.72136 8.88624 1.75664 8.7735C1.79144 8.66229 1.93874 8.29958 2.37397 8.29958H6.76984C7.80358 8.29958 8.70897 7.62554 9.02337 6.62065L10.3813 2.25184C10.5168 1.81857 10.8891 1.78492 11 1.78492C11.1108 1.78492 11.4832 1.81857 11.6182 2.25023L12.9771 6.62226C13.291 7.62554 14.1963 8.29958 15.2301 8.29958H19.6259C20.0612 8.29958 20.2085 8.66229 20.2433 8.7735C20.2785 8.88624 20.3658 9.27501 20.0083 9.54475L17.5834 11.3747C17.1995 11.6645 17.1144 12.2225 17.3933 12.6213C17.6722 13.02 18.2095 13.1084 18.5935 12.8187L21.0184 10.9888C21.8661 10.3491 22.2033 9.26309 21.8776 8.22192Z" fill="#D72323"/>
<path d="M50.3776 8.22192C50.0532 7.18486 49.1693 6.5147 48.126 6.5147H43.7302C43.4387 6.5147 43.1958 6.34042 43.112 6.07228L41.7531 1.70022C41.43 0.667349 40.5456 0 39.5001 0C38.4545 0 37.5701 0.667349 37.2465 1.70182L35.8886 6.07068C35.8042 6.34042 35.5614 6.5147 35.2699 6.5147H30.874C29.8306 6.5147 28.9468 7.18482 28.6224 8.22192C28.2967 9.26305 28.634 10.3491 29.4816 10.9887L33.038 13.6725C33.2666 13.8451 33.3616 14.1487 33.2742 14.4279L31.9158 18.7703C31.5927 19.8031 31.9305 20.8829 32.7764 21.5212C33.1993 21.8404 33.6841 22 34.1688 22C34.6536 22 35.1384 21.8404 35.5613 21.5212L39.1176 18.8375C39.3463 18.6649 39.6536 18.6648 39.8824 18.8375L43.4387 21.5212C44.2846 22.1595 45.3777 22.1596 46.2235 21.5212C47.0694 20.883 47.4072 19.8031 47.0841 18.7703L46.1542 15.7976C46.0076 15.3288 45.5228 15.0723 45.0716 15.2246C44.6202 15.3769 44.3732 15.8803 44.5199 16.3491L45.4498 19.3218C45.5853 19.755 45.3032 20.0095 45.2134 20.0773C45.1237 20.145 44.8035 20.3451 44.4487 20.0772L40.8924 17.3936C40.0596 16.765 38.9404 16.765 38.1075 17.3935L34.5512 20.0772C34.1964 20.345 33.8761 20.145 33.7864 20.0773C33.6967 20.0095 33.4146 19.755 33.5501 19.3218L34.9085 14.9795C35.2267 13.9625 34.8808 12.857 34.048 12.2285L30.4916 9.54475C30.1341 9.27501 30.2214 8.88624 30.2566 8.7735C30.2914 8.66229 30.4387 8.29958 30.874 8.29958H35.2698C36.3036 8.29958 37.209 7.62554 37.5234 6.62065L38.8813 2.25184C39.0168 1.81857 39.3891 1.78492 39.5 1.78492C39.6108 1.78492 39.9832 1.81857 40.1182 2.25023L41.4771 6.62226C41.791 7.62554 42.6963 8.29958 43.7301 8.29958H48.1259C48.5612 8.29958 48.7085 8.66229 48.7433 8.7735C48.7785 8.88624 48.8658 9.27501 48.5083 9.54475L46.0834 11.3747C45.6995 11.6645 45.6144 12.2225 45.8933 12.6213C46.1722 13.02 46.7095 13.1084 47.0935 12.8187L49.5184 10.9888C50.3661 10.3491 50.7033 9.26309 50.3776 8.22192Z" fill="#D72323"/>
<path d="M78.8776 8.22192C78.5532 7.18486 77.6693 6.5147 76.626 6.5147H72.2302C71.9387 6.5147 71.6958 6.34042 71.612 6.07228L70.2531 1.70022C69.93 0.667349 69.0456 0 68.0001 0C66.9545 0 66.0701 0.667349 65.7465 1.70182L64.3886 6.07068C64.3042 6.34042 64.0614 6.5147 63.7699 6.5147H59.374C58.3306 6.5147 57.4468 7.18482 57.1224 8.22192C56.7967 9.26305 57.134 10.3491 57.9816 10.9887L61.538 13.6725C61.7666 13.8451 61.8616 14.1487 61.7742 14.4279L60.4158 18.7703C60.0927 19.8031 60.4305 20.8829 61.2764 21.5212C61.6993 21.8404 62.1841 22 62.6688 22C63.1536 22 63.6384 21.8404 64.0613 21.5212L67.6176 18.8375C67.8463 18.6649 68.1536 18.6648 68.3824 18.8375L71.9387 21.5212C72.7846 22.1595 73.8777 22.1596 74.7235 21.5212C75.5694 20.883 75.9072 19.8031 75.5841 18.7703L74.6542 15.7976C74.5076 15.3288 74.0228 15.0723 73.5716 15.2246C73.1202 15.3769 72.8732 15.8803 73.0199 16.3491L73.9498 19.3218C74.0853 19.755 73.8032 20.0095 73.7134 20.0773C73.6237 20.145 73.3035 20.3451 72.9487 20.0772L69.3924 17.3936C68.5596 16.765 67.4404 16.765 66.6075 17.3935L63.0512 20.0772C62.6964 20.345 62.3761 20.145 62.2864 20.0773C62.1967 20.0095 61.9146 19.755 62.0501 19.3218L63.4085 14.9795C63.7267 13.9625 63.3808 12.857 62.548 12.2285L58.9916 9.54475C58.6341 9.27501 58.7214 8.88624 58.7566 8.7735C58.7914 8.66229 58.9387 8.29958 59.374 8.29958H63.7698C64.8036 8.29958 65.709 7.62554 66.0234 6.62065L67.3813 2.25184C67.5168 1.81857 67.8891 1.78492 68 1.78492C68.1108 1.78492 68.4832 1.81857 68.6182 2.25023L69.9771 6.62226C70.291 7.62554 71.1963 8.29958 72.2301 8.29958H76.6259C77.0612 8.29958 77.2085 8.66229 77.2433 8.7735C77.2785 8.88624 77.3658 9.27501 77.0083 9.54475L74.5834 11.3747C74.1995 11.6645 74.1144 12.2225 74.3933 12.6213C74.6722 13.02 75.2095 13.1084 75.5935 12.8187L78.0184 10.9888C78.8661 10.3491 79.2033 9.26309 78.8776 8.22192Z" fill="#D72323"/>
<path d="M107.378 8.22192C107.053 7.18486 106.169 6.5147 105.126 6.5147H100.73C100.439 6.5147 100.196 6.34042 100.112 6.07228L98.7531 1.70022C98.43 0.667349 97.5456 0 96.5001 0C95.4545 0 94.5701 0.667349 94.2465 1.70182L92.8886 6.07068C92.8042 6.34042 92.5614 6.5147 92.2699 6.5147H87.874C86.8306 6.5147 85.9468 7.18482 85.6224 8.22192C85.2967 9.26305 85.634 10.3491 86.4816 10.9887L90.038 13.6725C90.2666 13.8451 90.3616 14.1487 90.2742 14.4279L88.9158 18.7703C88.5927 19.8031 88.9305 20.8829 89.7764 21.5212C90.1993 21.8404 90.6841 22 91.1688 22C91.6536 22 92.1384 21.8404 92.5613 21.5212L96.1176 18.8375C96.3463 18.6649 96.6536 18.6648 96.8824 18.8375L100.439 21.5212C101.285 22.1595 102.378 22.1596 103.224 21.5212C104.069 20.883 104.407 19.8031 104.084 18.7703L103.154 15.7976C103.008 15.3288 102.523 15.0723 102.072 15.2246C101.62 15.3769 101.373 15.8803 101.52 16.3491L102.45 19.3218C102.585 19.755 102.303 20.0095 102.213 20.0773C102.124 20.145 101.803 20.3451 101.449 20.0772L97.8924 17.3936C97.0596 16.765 95.9404 16.765 95.1075 17.3935L91.5512 20.0772C91.1964 20.345 90.8761 20.145 90.7864 20.0773C90.6967 20.0095 90.4146 19.755 90.5501 19.3218L91.9085 14.9795C92.2267 13.9625 91.8808 12.857 91.048 12.2285L87.4916 9.54475C87.1341 9.27501 87.2214 8.88624 87.2566 8.7735C87.2914 8.66229 87.4387 8.29958 87.874 8.29958H92.2698C93.3036 8.29958 94.209 7.62554 94.5234 6.62065L95.8813 2.25184C96.0168 1.81857 96.3891 1.78492 96.5 1.78492C96.6108 1.78492 96.9832 1.81857 97.1182 2.25023L98.4771 6.62226C98.791 7.62554 99.6963 8.29958 100.73 8.29958H105.126C105.561 8.29958 105.708 8.66229 105.743 8.7735C105.779 8.88624 105.866 9.27501 105.508 9.54475L103.083 11.3747C102.699 11.6645 102.614 12.2225 102.893 12.6213C103.172 13.02 103.71 13.1084 104.093 12.8187L106.518 10.9888C107.366 10.3491 107.703 9.26309 107.378 8.22192Z" fill="#D72323"/>
<path d="M135.878 8.22192C135.553 7.18486 134.669 6.5147 133.626 6.5147H129.23C128.939 6.5147 128.696 6.34042 128.612 6.07228L127.253 1.70022C126.93 0.667349 126.046 0 125 0C123.955 0 123.07 0.667349 122.747 1.70182L121.389 6.07068C121.304 6.34042 121.061 6.5147 120.77 6.5147H116.374C115.331 6.5147 114.447 7.18482 114.122 8.22192C113.797 9.26305 114.134 10.3491 114.982 10.9887L118.538 13.6725C118.767 13.8451 118.862 14.1487 118.774 14.4279L117.416 18.7703C117.093 19.8031 117.431 20.8829 118.276 21.5212C118.699 21.8404 119.184 22 119.669 22C120.154 22 120.638 21.8404 121.061 21.5212L124.618 18.8375C124.846 18.6649 125.154 18.6648 125.382 18.8375L128.939 21.5212C129.785 22.1595 130.878 22.1596 131.724 21.5212C132.569 20.883 132.907 19.8031 132.584 18.7703L131.654 15.7976C131.508 15.3288 131.023 15.0723 130.572 15.2246C130.12 15.3769 129.873 15.8803 130.02 16.3491L130.95 19.3218C131.085 19.755 130.803 20.0095 130.713 20.0773C130.624 20.145 130.303 20.3451 129.949 20.0772L126.392 17.3936C125.56 16.765 124.44 16.765 123.608 17.3935L120.051 20.0772C119.696 20.345 119.376 20.145 119.286 20.0773C119.197 20.0095 118.915 19.755 119.05 19.3218L120.409 14.9795C120.727 13.9625 120.381 12.857 119.548 12.2285L115.992 9.54475C115.634 9.27501 115.721 8.88624 115.757 8.7735C115.791 8.66229 115.939 8.29958 116.374 8.29958H120.77C121.804 8.29958 122.709 7.62554 123.023 6.62065L124.381 2.25184C124.517 1.81857 124.889 1.78492 125 1.78492C125.111 1.78492 125.483 1.81857 125.618 2.25023L126.977 6.62226C127.291 7.62554 128.196 8.29958 129.23 8.29958H133.626C134.061 8.29958 134.208 8.66229 134.243 8.7735C134.279 8.88624 134.366 9.27501 134.008 9.54475L131.583 11.3747C131.199 11.6645 131.114 12.2225 131.393 12.6213C131.672 13.02 132.21 13.1084 132.593 12.8187L135.018 10.9888C135.866 10.3491 136.203 9.26309 135.878 8.22192Z" fill="#D72323"/>
</g>
<defs>
<clipPath id="clip0">
<rect width="135.81" height="22.48" fill="white"/>
</clipPath>
</defs>
</svg>
