<svg width="18" height="16" viewBox="0 0 18 16" fill="none" xmlns="http://www.w3.org/2000/svg">
<path d="M11.7675 5.79681C11.5113 5.79681 11.3037 5.96455 11.3037 6.17152V13.2535C11.3037 13.4603 11.5113 13.6282 11.7675 13.6282C12.0236 13.6282 12.2313 13.4603 12.2313 13.2535V6.17152C12.2313 5.96455 12.0236 5.79681 11.7675 5.79681Z" fill="#3A4750"/>
<path d="M6.29483 5.79681C6.03866 5.79681 5.83105 5.96455 5.83105 6.17152V13.2535C5.83105 13.4603 6.03866 13.6282 6.29483 13.6282C6.55099 13.6282 6.7586 13.4603 6.7586 13.2535V6.17152C6.7586 5.96455 6.55099 5.79681 6.29483 5.79681Z" fill="#3A4750"/>
<path d="M2.30644 4.76329V13.9953C2.30644 14.5409 2.55408 15.0534 2.98669 15.421C3.41731 15.7898 4.01658 15.9991 4.64376 15.9999H13.4184C14.0458 15.9991 14.645 15.7898 15.0755 15.421C15.5081 15.0534 15.7557 14.5409 15.7557 13.9953V4.76329C16.6157 4.57887 17.1729 3.90762 17.0579 3.19465C16.9427 2.48183 16.191 1.94861 15.3012 1.94846H12.9267V1.48008C12.9295 1.0862 12.7367 0.707978 12.3916 0.429729C12.0465 0.151627 11.5776 -0.00323193 11.0901 -1.18018e-05H6.97202C6.48452 -0.00323193 6.01568 0.151627 5.67057 0.429729C5.32546 0.707978 5.13271 1.0862 5.13542 1.48008V1.94846H2.76097C1.87111 1.94861 1.11948 2.48183 1.00426 3.19465C0.889225 3.90762 1.44647 4.57887 2.30644 4.76329ZM13.4184 15.2505H4.64376C3.85082 15.2505 3.23397 14.7002 3.23397 13.9953V4.79623H14.8282V13.9953C14.8282 14.7002 14.2113 15.2505 13.4184 15.2505ZM6.06296 1.48008C6.05988 1.28497 6.15481 1.09717 6.32619 0.959441C6.49738 0.821707 6.73035 0.746034 6.97202 0.7494H11.0901C11.3318 0.746034 11.5648 0.821707 11.736 0.959441C11.9073 1.09703 12.0023 1.28497 11.9992 1.48008V1.94846H6.06296V1.48008ZM2.76097 2.69787H15.3012C15.7622 2.69787 16.136 2.99983 16.136 3.37234C16.136 3.74485 15.7622 4.04681 15.3012 4.04681H2.76097C2.29991 4.04681 1.92618 3.74485 1.92618 3.37234C1.92618 2.99983 2.29991 2.69787 2.76097 2.69787Z" fill="#3A4750"/>
<path d="M9.03115 5.79681C8.77499 5.79681 8.56738 5.96455 8.56738 6.17152V13.2535C8.56738 13.4603 8.77499 13.6282 9.03115 13.6282C9.28731 13.6282 9.49491 13.4603 9.49491 13.2535V6.17152C9.49491 5.96455 9.28731 5.79681 9.03115 5.79681Z" fill="#3A4750"/>
</svg>
