<svg width="150" height="97" viewBox="0 0 150 97" fill="none" xmlns="http://www.w3.org/2000/svg">
<path d="M0.0529639 96.7667C0.00408323 96.6385 -0.0143328 74.8257 0.0120425 48.2939L0.0599965 0.0543181L35.8036 0.00718217C55.4626 -0.018745 71.6152 0.0277702 71.6982 0.110545C71.8666 0.278396 71.913 96.5571 71.7449 96.8283C71.6807 96.9319 57.4467 97 35.8901 97C7.46367 97 0.123611 96.9523 0.0529378 96.7667H0.0529639ZM18.7431 79.4756C18.8383 79.3807 18.9015 77.6294 18.8846 75.5534C18.8581 72.2963 18.8929 71.7878 19.1485 71.69C19.3564 71.6104 20.6353 72.7618 23.5039 75.6112C26.0449 78.1351 27.7074 79.6487 27.9454 79.6549C28.1546 79.6606 29.084 79.6855 30.0105 79.7105C31.8658 79.7607 32.1632 79.7147 32.1632 79.3771C32.1632 79.2517 29.8889 76.8919 27.1091 74.133C24.3293 71.374 22.0549 68.9843 22.0549 68.8224C22.0549 68.6606 24.3703 66.229 27.2001 63.4189C30.7547 59.8891 32.2906 58.2441 32.1685 58.0974C32.0523 57.9578 31.2471 57.8946 29.82 57.913L27.6484 57.9409L24.992 60.5353C23.5311 61.9622 21.7461 63.7713 21.0254 64.5555C20.1662 65.4904 19.5671 65.9884 19.2855 66.0017L18.8559 66.0221L18.8846 62.1622C18.9083 58.9786 18.8657 58.2674 18.6413 58.1034C18.4738 57.9809 17.765 57.9403 16.7959 57.9977L15.2225 58.0911V68.8213V79.5516L15.9712 79.647C17.0004 79.778 18.5348 79.6832 18.7431 79.4755L18.7431 79.4756ZM51.6311 79.0726C56.6045 76.9929 59.5223 72.0557 58.6664 67.1682C58.2437 64.7547 57.3603 63.1008 55.5111 61.2613C54.271 60.0276 53.661 59.5824 52.3799 58.9758C50.5524 58.1106 49.8841 57.9639 47.7997 57.9701C44.7978 57.9791 42.4601 58.9465 40.292 61.0769C38.6754 62.6654 37.7896 64.1366 37.2504 66.1287C36.5211 68.8233 36.8522 71.6017 38.1895 74.0077C39.4181 76.2182 42.3256 78.5452 44.8922 79.3722C46.249 79.8094 50.2999 79.6293 51.6311 79.0726ZM45.764 75.8176C43.9547 75.322 42.1522 73.7627 41.1282 71.8072C40.7451 71.0757 40.688 70.7027 40.6852 68.9147C40.6822 67.0098 40.722 66.7816 41.238 65.7465C42.2015 63.8138 43.9818 62.3358 45.9488 61.8358C48.7198 61.1314 51.3405 61.8975 53.1476 63.9402C55.7406 66.8711 55.7622 70.8175 53.2009 73.6575C51.2965 75.7692 48.5255 76.574 45.764 75.8176ZM25.5699 54.1616C25.976 53.8781 25.9859 53.7828 25.9859 50.1786V46.4861L26.7815 45.3272C27.2191 44.6897 27.7034 43.9712 27.8579 43.7304C28.0123 43.4896 28.8814 42.2135 29.7892 40.8946C30.697 39.5758 32.0676 37.583 32.835 36.4663C33.6023 35.3495 34.4433 34.1833 34.7039 33.8746C34.9644 33.5659 35.1522 33.136 35.1211 32.9192C35.0689 32.5542 34.9365 32.5219 33.3333 32.4818L31.6018 32.4386L30.7577 33.5082C30.2934 34.0965 29.4474 35.2497 28.8775 36.0707C28.3077 36.8918 27.4181 38.1515 26.9006 38.8699C26.3832 39.5884 25.6133 40.7011 25.1897 41.3426C24.7223 42.0506 24.2884 42.5089 24.0857 42.5089C23.8848 42.5089 23.4511 42.0576 22.9969 41.376C22.5818 40.753 22.2421 40.2133 22.2421 40.1768C22.2421 40.1402 21.8351 39.4953 21.3375 38.7437C20.84 37.992 19.7943 36.4066 19.0137 35.2205C18.2331 34.0344 17.4694 32.9604 17.3165 32.8339C16.8905 32.4815 13.5598 32.6188 13.4883 32.9917C13.4588 33.1458 14.5529 34.9679 15.9197 37.0409C17.2865 39.1139 19.2733 42.1354 20.335 43.7553L22.2652 46.7006L22.2252 50.3249C22.1884 53.6576 22.2129 53.9693 22.5302 54.2006C23.0164 54.5551 25.0437 54.5291 25.5699 54.1616L25.5699 54.1616ZM49.572 54.2592C52.0304 53.8752 54.2455 52.6398 56.0972 50.6199C57.382 49.2185 57.9834 48.156 58.5017 46.372C59.59 42.6264 58.5372 38.7962 55.6168 35.8753C54.0388 34.2971 51.9545 33.1444 50.0255 32.7832C48.8007 32.5539 45.3853 32.6669 45.0258 32.9486C44.9009 33.0466 44.5459 33.1854 44.2371 33.2572C43.1895 33.5005 41.2205 34.8294 40.0121 36.1088C37.912 38.3321 37.0383 40.5454 37.033 43.6556C37.0276 46.8028 38.3519 49.5979 40.8492 51.71C42.3563 52.9846 44.0219 53.819 45.7363 54.1581C47.3695 54.4813 48.0379 54.4989 49.572 54.2592ZM45.7679 50.4392C43.1071 49.7101 41.0462 47.2204 40.6703 44.281C40.2086 40.6713 42.9538 37.0016 46.5878 36.3706C48.1382 36.1014 50.1365 36.4047 51.342 37.0924C57.0082 40.3242 56.1937 48.5718 50.0242 50.4376C48.9098 50.7746 46.9946 50.7753 45.7679 50.439V50.4392ZM29.2448 17.5404C31.7009 15.7138 33.1527 15.1842 35.7199 15.178C38.4361 15.1716 39.9347 15.7168 42.4382 17.6226C43.4106 18.3627 44.389 18.4574 45.1224 17.8822C45.7277 17.4076 46.0907 16.5209 45.9342 15.8993C45.7349 15.1076 43.9779 13.546 42.3544 12.7174C39.9924 11.512 38.8474 11.2561 35.8135 11.2553C32.0929 11.2544 30.1583 11.8511 27.4223 13.843C25.53 15.2207 25.1435 16.3984 26.1925 17.5895C27.02 18.5291 27.9352 18.5143 29.2448 17.5404V17.5404ZM78.2352 96.7477C78.0798 96.561 78.0367 83.8177 78.0715 48.2743L78.1187 0.0543181H114.059H150V48.4805V96.9067L114.223 96.9538C84.2784 96.9932 78.4117 96.9595 78.2352 96.7477L78.2352 96.7477ZM93.7179 78.1476C94.2059 77.9383 94.8473 77.46 95.1565 77.0746L95.7146 76.3792L95.772 72.3753C95.8036 70.1731 95.7809 68.1787 95.7217 67.9432C95.626 67.5632 95.5008 67.5151 94.6079 67.5151C93.8633 67.5151 93.5724 67.5918 93.4883 67.8103C93.4259 67.9726 93.3747 69.7706 93.3747 71.8059V75.5063L92.7988 75.9894C92.1407 76.5414 91.6431 76.5899 90.6938 76.1945C89.9018 75.8646 89.569 75.9566 89.2819 76.5849C88.9326 77.3491 89.0228 77.7695 89.5841 77.9936C91.1271 78.6098 92.5192 78.6617 93.7179 78.1476H93.7179ZM99.2478 78.161C99.5635 78.0413 99.7785 77.7598 99.9061 77.2991C100.249 76.0599 100.519 75.9124 102.436 75.9156C103.372 75.917 104.237 75.981 104.358 76.0576C104.478 76.1341 104.815 76.6577 105.106 77.2211C105.635 78.2447 105.636 78.2454 106.603 78.3012C107.457 78.3506 107.585 78.3096 107.699 77.9509C107.822 77.5656 107.38 76.1993 106.452 74.0953C106.261 73.6602 106.103 73.2403 106.103 73.1622C106.102 72.999 105.259 70.9278 104.528 69.2943C104.254 68.6819 103.893 68.0311 103.727 67.848C103.314 67.3927 101.784 67.3886 101.373 67.8417C101.101 68.1421 100.18 70.135 99.3676 72.1804C99.1843 72.6423 98.8594 73.4401 98.6457 73.9533C97.8455 75.8748 97.3057 77.3503 97.3057 77.6162C97.3057 78.2812 98.2395 78.5431 99.2478 78.161ZM101.362 73.9222C101.132 73.6933 101.233 73.0042 101.611 72.2245C101.817 71.7996 101.985 71.3323 101.985 71.1859C101.985 71.0396 102.103 70.8227 102.246 70.7039C102.448 70.5372 102.576 70.5563 102.808 70.7877C102.973 70.9526 103.109 71.2114 103.109 71.363C103.109 71.5146 103.277 71.9863 103.483 72.4111C103.934 73.3425 103.957 73.7819 103.561 73.9333C103.162 74.086 101.518 74.0777 101.362 73.9222V73.9222ZM111.635 78.0233C111.892 77.7668 111.929 77.496 111.834 76.5731C111.671 74.9801 111.952 74.6064 113.317 74.6064C115.124 74.6064 116.782 73.7325 117.353 72.4788C118.194 70.6322 117.5 68.8358 115.559 67.8376C114.916 67.5068 114.464 67.4507 112.417 67.4478C110.462 67.445 109.97 67.4993 109.723 67.7455C109.459 68.0086 109.424 68.6657 109.444 72.9361C109.459 76.2948 109.533 77.9057 109.68 78.082C109.982 78.4447 111.25 78.4066 111.635 78.0233V78.0233ZM112.515 72.593C111.923 72.5012 111.744 72.0581 111.794 70.8082C111.843 69.583 112.018 69.3884 113.079 69.3841C114.574 69.3778 115.454 70.4551 114.973 71.7038C114.765 72.2458 113.417 72.7332 112.515 72.593ZM119.639 78.0053C119.805 77.8219 120.066 77.3744 120.219 77.0107C120.371 76.6471 120.609 76.256 120.747 76.1416C120.885 76.0272 121.736 75.9175 122.637 75.8977C124.119 75.8651 124.32 75.9033 124.737 76.2929C124.99 76.5301 125.197 76.8588 125.197 77.0234C125.197 77.5707 125.761 78.1357 126.434 78.2614C127.182 78.4013 128.005 78.1115 128.005 77.7083C128.005 77.4703 126.936 74.5193 126.509 73.58C126.416 73.3748 126.114 72.619 125.838 71.9005C125.562 71.1821 125.136 70.1663 124.892 69.6432C124.648 69.1201 124.448 68.6216 124.448 68.5355C124.448 68.4494 124.265 68.1846 124.041 67.947C123.73 67.6164 123.433 67.5158 122.778 67.518C122.307 67.5194 121.831 67.5825 121.72 67.6579C121.252 67.9773 119.982 70.8629 118.417 75.1663C118.212 75.7308 117.869 76.543 117.654 76.9713C117.329 77.6223 117.305 77.7982 117.51 78.0443C117.857 78.4614 119.248 78.4359 119.639 78.0053V78.0053ZM121.47 73.705C121.341 73.4643 121.368 73.2072 121.563 72.8339C121.714 72.5426 121.929 71.9462 122.039 71.5086C122.391 70.1175 122.923 70.3087 123.566 72.057C124.123 73.5736 124.144 73.701 123.867 73.8762C123.723 73.9668 123.167 74.0422 122.63 74.0437C121.874 74.0458 121.612 73.9697 121.47 73.705ZM131.638 78.0944C131.934 77.8785 131.97 77.5528 131.947 75.2919C131.933 73.885 131.884 72.6303 131.837 72.5038C131.791 72.3773 131.83 72.1526 131.925 72.0044C132.183 71.6 132.969 72.0244 133.359 72.7788C133.534 73.1169 133.938 73.7426 134.257 74.1694C134.576 74.5962 135.287 75.659 135.837 76.5313C136.818 78.0871 137.117 78.3304 138.062 78.3361C138.897 78.3411 138.963 77.8642 138.862 72.5537L138.769 67.6084L137.698 67.5526C136.674 67.4992 136.622 67.5184 136.502 67.9975C136.432 68.2729 136.419 69.4316 136.472 70.5726C136.573 72.7606 136.532 73.1135 136.179 73.1135C135.947 73.1135 134.931 71.9367 134.931 71.6679C134.931 71.459 133.221 69.3172 132.248 68.3082C131.584 67.6187 131.38 67.5151 130.687 67.5151C130.114 67.5151 129.845 67.6069 129.729 67.8417C129.641 68.0213 129.575 70.3491 129.582 73.0146L129.596 77.861L130.064 78.0971C130.668 78.4017 131.218 78.4008 131.638 78.0943L131.638 78.0944ZM106.626 57.9414C106.803 57.803 106.854 57.2139 106.817 55.7413C106.789 54.6352 106.834 53.6617 106.917 53.578C107.001 53.4943 108.347 53.3838 109.909 53.3325L112.749 53.2392L112.806 52.2443C112.892 50.7412 112.849 50.7199 109.742 50.7199C108.043 50.7199 107.016 50.6469 106.938 50.5206C106.87 50.411 106.771 49.8417 106.718 49.2555C106.581 47.7485 106.73 47.66 109.314 47.7151C111.768 47.7675 112.094 47.6059 112.094 46.3345C112.094 45.0645 111.774 44.9064 109.299 44.9547C107.949 44.981 107.138 44.9211 107.002 44.785C106.886 44.6694 106.753 44.1251 106.708 43.5755C106.579 42.032 106.733 41.949 109.73 41.949C111.406 41.949 112.279 41.8767 112.431 41.7251C112.765 41.3915 112.714 39.7947 112.357 39.439C112.129 39.2118 111.85 39.1692 111.173 39.2587C110.495 39.3484 110.218 39.3057 109.988 39.0766C109.713 38.8022 109.715 38.6995 110.022 37.8327C110.205 37.3131 110.541 36.6372 110.769 36.3307C110.996 36.0242 111.155 35.6342 111.122 35.4641C111.051 35.0957 109.457 34.44 108.563 34.4114C107.88 34.3895 107.849 34.4477 106.675 38.0167C106.306 39.1387 105.868 39.4379 104.869 39.2517C104.308 39.1473 103.857 38.5639 103.857 37.9437C103.857 37.64 102.033 34.8637 101.619 34.5371C101.26 34.2546 100.628 34.2333 100.365 34.4948C100.257 34.6031 99.8821 34.8341 99.5329 35.008C98.5177 35.5137 98.5485 35.6288 100.304 37.889C100.523 38.1705 100.675 38.5904 100.642 38.822C100.585 39.2181 100.507 39.2397 99.3262 39.1856C98.6358 39.1539 97.9086 39.2146 97.7103 39.3204C97.2777 39.5511 97.106 40.4886 97.3409 41.3368L97.5105 41.9491H100.135C101.586 41.9491 102.921 42.0354 103.121 42.1422C103.415 42.2994 103.483 42.5388 103.483 43.4257C103.483 44.9616 103.369 45.0237 100.67 44.9593C98.616 44.9102 98.4429 44.9333 98.2559 45.2816C97.9618 45.8295 98.0044 47.2738 98.3225 47.5369C98.505 47.6879 99.3158 47.7428 100.862 47.709C102.683 47.6692 103.168 47.7132 103.306 47.93C103.556 48.3249 103.521 50.2341 103.258 50.496C103.103 50.651 102.135 50.7199 100.114 50.7199C98.0919 50.7199 97.1243 50.7888 96.9688 50.9438C96.8452 51.067 96.7441 51.5541 96.7441 52.0262C96.7441 52.4983 96.8452 52.9854 96.9688 53.1085C97.1244 53.2637 98.0951 53.3325 100.128 53.3325C102.32 53.3325 103.114 53.3944 103.266 53.5771C103.379 53.7125 103.494 54.775 103.523 55.9564L103.577 58.0911L104.606 58.1853C105.742 58.2892 106.262 58.2265 106.626 57.9415L106.626 57.9414ZM126.358 57.9733C127.404 57.7506 128.785 56.9319 129.059 56.3714C129.148 56.1883 129.264 54.023 129.315 51.5597L129.409 47.0809L134.495 46.9876C137.292 46.9363 139.642 46.8329 139.717 46.7578C140.014 46.4613 140.006 45.087 139.705 44.6289L139.402 44.1684L134.564 44.2009C131.904 44.2187 129.634 44.1763 129.521 44.1066C129.408 44.0369 129.315 43.74 129.315 43.447C129.315 42.9949 129.637 42.6502 131.435 41.172C134.575 38.5917 137.177 36.1461 137.177 35.7765C137.177 35.4327 136.179 34.4885 135.806 34.4789C135.685 34.476 131.765 34.458 127.095 34.4394C118.944 34.4069 118.594 34.4198 118.344 34.7606C117.995 35.2371 118.015 36.1695 118.386 36.6978L118.688 37.128L124.749 37.0659C132.064 36.9909 131.951 36.9408 129.387 39.12C127.996 40.3027 127.995 40.3031 127.081 40.1779C125.963 40.0246 125.903 40.1409 125.981 42.3044C126.017 43.2778 125.958 43.8778 125.813 44.022C125.651 44.1837 124.3 44.2331 120.821 44.2046C116.225 44.167 116.043 44.1792 115.85 44.5379C115.561 45.0767 115.601 46.5278 115.912 46.7852C116.097 46.9384 117.555 46.9947 120.893 46.9778C123.894 46.9625 125.682 47.0233 125.804 47.1447C125.921 47.2616 125.991 48.6254 125.983 50.6595L125.971 53.9833L125.48 54.4043C125.113 54.7193 124.754 54.8254 124.058 54.8254C122.899 54.8254 122.744 55.1144 123.298 56.2497C123.519 56.7035 123.7 57.2236 123.7 57.4056C123.7 58.1926 124.512 58.3661 126.358 57.9733L126.358 57.9733ZM91.0195 57.8845C91.1848 57.8213 91.317 57.5535 91.3187 57.2781C91.3201 57.0068 91.5099 56.4727 91.7399 56.0911C91.9698 55.7096 92.6585 54.5339 93.2703 53.4785C93.8821 52.4231 94.535 51.3594 94.7211 51.1146C95.2166 50.4628 95.1416 50.0493 94.3587 49.1155C93.5015 48.0932 93.0694 48.0974 92.4938 49.1337C91.5957 50.7505 91.4464 51.0032 91.336 51.0931C91.2729 51.1445 91.112 51.3964 90.9782 51.653C90.8445 51.9095 90.2339 52.7427 89.6214 53.5044C89.0089 54.2661 88.5077 54.9865 88.5077 55.1053C88.5077 55.3039 90.511 57.9978 90.6586 57.9978C90.6943 57.9978 90.8567 57.9468 91.0195 57.8845V57.8845ZM93.5699 45.3759C94.0803 44.9 94.4978 44.3768 94.4978 44.2132C94.4978 43.8653 91.3394 40.6428 90.9984 40.6428C90.7097 40.6428 89.4936 41.6941 89.2436 42.1598C89.0903 42.4453 89.2471 42.7125 90.1399 43.6855C90.735 44.3342 91.4886 45.1746 91.8144 45.5531C92.1402 45.9315 92.4597 46.2412 92.5244 46.2412C92.589 46.2412 93.0595 45.8518 93.5699 45.3759ZM95.2118 38.5881C95.7539 37.9605 95.9822 37.5464 95.9063 37.3285C95.7504 36.8807 92.7157 34.4057 92.2281 34.3286C91.7593 34.2546 90.3796 35.5044 90.3796 36.0032C90.3796 36.181 90.7103 36.5628 91.1145 36.8517C91.5186 37.1407 92.2978 37.8559 92.846 38.4412C93.3942 39.0265 93.969 39.5093 94.1235 39.5141C94.2779 39.5191 94.7677 39.1022 95.2118 38.5881ZM107.476 17.6179C108.612 16.6993 109.983 15.9175 111.158 15.5193C112.701 14.9962 115.91 15.0563 117.429 15.6368C118.454 16.0288 119.879 16.8984 121.079 17.8641C121.794 18.44 122.945 18.3803 123.548 17.736C124.442 16.7802 124.519 16.4591 124.071 15.5378C123.628 14.624 121.944 13.2871 120.143 12.4189C116.663 10.7414 111.352 10.783 107.882 12.5149C105.613 13.6473 103.857 15.3324 103.857 16.3782C103.857 16.6079 104.117 17.1228 104.435 17.5225C104.952 18.174 105.099 18.2492 105.854 18.2492C106.532 18.2492 106.848 18.1263 107.476 17.6179Z" fill="#D7262E"/>
</svg>
