<svg width="23" height="23" viewBox="0 0 23 23" fill="none" xmlns="http://www.w3.org/2000/svg">
<path d="M3.35645 10.5468H6.21873C7.44267 10.5468 8.26497 9.79028 8.26501 8.66436C8.26501 7.556 7.42354 6.78195 6.21878 6.78195H3.35645C3.10839 6.78195 2.90723 6.98307 2.90723 7.23117V10.0975C2.90723 10.3457 3.10839 10.5468 3.35645 10.5468ZM3.80566 7.68039H6.21878C6.92679 7.68039 7.36657 8.05742 7.36657 8.66436C7.36657 9.55246 6.56391 9.64833 6.21878 9.64833H3.80566V7.68039Z" fill="#303841"/>
<path d="M6.3416 12.2077H3.35645C3.10839 12.2077 2.90723 12.4088 2.90723 12.6569V15.769C2.90723 16.0171 3.10839 16.2182 3.35645 16.2182H6.3416C6.98744 16.2182 7.53221 16.0374 7.9171 15.6953C8.31874 15.3382 8.53109 14.8257 8.53109 14.213C8.53109 13.0323 7.63072 12.2077 6.3416 12.2077ZM6.3416 15.3198H3.80566V13.1061H6.3416C7.13793 13.1061 7.63265 13.5302 7.63265 14.213C7.63265 15.1278 6.93057 15.3198 6.3416 15.3198Z" fill="#303841"/>
<path d="M9.65452 11.2551C9.95091 11.0609 10.2178 10.8186 10.4427 10.5358C10.9603 9.88492 11.2339 9.06079 11.2339 8.15247C11.2339 7.09137 10.834 6.11652 10.1081 5.40747C9.31442 4.63234 8.18908 4.22266 6.8536 4.22266H0.449219C0.20116 4.22266 0 4.42377 0 4.67188V18.3281C0 18.5762 0.20116 18.7773 0.449219 18.7773H7.07879C8.44082 18.7773 9.57748 18.3591 10.3658 17.5677C11.1078 16.8229 11.5 15.8044 11.5 14.6223C11.5 13.1866 10.7586 11.9052 9.65452 11.2551ZM7.07879 17.8789H0.898438V5.12109H6.85364C9.25885 5.12109 10.3355 6.64359 10.3355 8.15247C10.3355 9.72792 9.33292 10.64 8.33934 10.845C8.12628 10.889 7.97538 11.0792 7.981 11.2966C7.98666 11.5141 8.14726 11.6962 8.36221 11.7291C9.63884 11.9241 10.6016 13.1679 10.6016 14.6223C10.6016 16.6311 9.25171 17.8789 7.07879 17.8789Z" fill="#303841"/>
<path d="M20.3877 4.58203H14.9072C14.6592 4.58203 14.458 4.78315 14.458 5.03125V6.46875C14.458 6.71685 14.6592 6.91797 14.9072 6.91797H20.3877C20.6358 6.91797 20.8369 6.71685 20.8369 6.46875V5.03125C20.8369 4.78315 20.6358 4.58203 20.3877 4.58203ZM19.9385 6.01953H15.3564V5.48047H19.9385V6.01953Z" fill="#303841"/>
<path d="M13.1943 13.183V13.1753C13.1943 12.9272 12.9932 12.7261 12.7451 12.7261C12.4971 12.7261 12.2959 12.9272 12.2959 13.1753V13.183C12.2959 13.4311 12.4971 13.6322 12.7451 13.6322C12.9932 13.6322 13.1943 13.4311 13.1943 13.183Z" fill="#303841"/>
<path d="M21.5851 9.04245C20.5979 7.96778 19.2431 7.42288 17.5581 7.42288C16.0483 7.42288 14.7793 7.94272 13.7863 8.96788C13.1556 9.61916 12.7198 10.436 12.4909 11.3957C12.4333 11.637 12.5823 11.8793 12.8236 11.9369C13.0651 11.9944 13.3073 11.8455 13.3648 11.6041C13.5558 10.8034 13.9148 10.1267 14.4316 9.59288C15.2605 8.73725 16.2831 8.32132 17.5581 8.32132C19.0012 8.32132 20.102 8.75598 20.9234 9.65015C21.6764 10.4702 22.0716 11.7351 22.1004 13.4138H15.5914C15.4703 13.4138 15.3543 13.4628 15.2698 13.5495C15.1853 13.6362 15.1393 13.7533 15.1423 13.8744C15.1649 14.7733 15.4343 15.4918 15.9427 16.0098C16.4565 16.5336 17.103 16.7992 17.8644 16.7992C18.3978 16.7992 18.8586 16.6541 19.2338 16.368C19.3888 16.2499 19.5284 16.1029 19.6509 15.9295H21.6443C21.3444 16.4527 20.9488 16.8783 20.4684 17.1946C19.7791 17.6487 18.893 17.8789 17.8347 17.8789C16.1412 17.8789 14.9322 17.3784 14.1405 16.3514C13.8052 15.9101 13.5561 15.3977 13.4002 14.8287C13.3346 14.5894 13.0874 14.4486 12.8482 14.5142C12.6089 14.5797 12.4681 14.8269 12.5337 15.0661C12.7202 15.7464 13.02 16.3617 13.4271 16.8974C14.3886 18.1448 15.8716 18.7773 17.8348 18.7773C19.0717 18.7773 20.1241 18.4972 20.9627 17.9448C21.5633 17.5493 22.0559 17.0198 22.4267 16.3711C22.5565 16.144 22.6714 15.897 22.7683 15.6369C22.8196 15.499 22.8001 15.3447 22.7161 15.2239C22.6322 15.103 22.4944 15.031 22.3472 15.031H19.4026C19.2389 15.031 19.0882 15.12 19.0092 15.2633C18.9169 15.4306 18.8092 15.5619 18.689 15.6536C18.471 15.8199 18.2012 15.9007 17.8644 15.9007C17.3462 15.9007 16.9274 15.7306 16.584 15.3806C16.32 15.1115 16.1539 14.7596 16.0814 14.3123H22.5489C22.7935 14.3123 22.9932 14.1165 22.998 13.8718C23.0397 11.7336 22.5644 10.1088 21.5851 9.04245Z" fill="#303841"/>
<path d="M15.6408 12.692H19.7915C19.9127 12.692 20.0287 12.6431 20.1133 12.5563C20.1979 12.4695 20.2438 12.3523 20.2407 12.2312C20.2179 11.3506 19.9647 10.6602 19.488 10.1792C19.007 9.69405 18.4142 9.44806 17.7261 9.44806C16.9939 9.44806 16.3784 9.70802 15.8965 10.2208V10.2208C15.421 10.7269 15.1839 11.4086 15.1916 12.2469C15.1939 12.4934 15.3943 12.692 15.6408 12.692ZM16.5512 10.836C16.8608 10.5066 17.2451 10.3465 17.726 10.3465C18.1719 10.3465 18.5396 10.4987 18.8498 10.8116C19.0811 11.045 19.2321 11.3742 19.3009 11.7936H16.1177C16.1743 11.4004 16.3176 11.0847 16.5512 10.836Z" fill="#303841"/>
<path d="M1.88672 10.7363C1.63866 10.7363 1.4375 10.9374 1.4375 11.1855V14.8467C1.4375 15.0948 1.63866 15.2959 1.88672 15.2959C2.13478 15.2959 2.33594 15.0948 2.33594 14.8467V11.1855C2.33594 10.9374 2.13478 10.7363 1.88672 10.7363Z" fill="#303841"/>
<path d="M1.88672 8.69238C1.63866 8.69238 1.4375 8.8935 1.4375 9.1416V9.1469C1.4375 9.39501 1.63866 9.59612 1.88672 9.59612C2.13478 9.59612 2.33594 9.39501 2.33594 9.1469V9.1416C2.33594 8.8935 2.13478 8.69238 1.88672 8.69238Z" fill="#303841"/>
</svg>
