<svg width="23" height="23" viewBox="0 0 23 23" fill="none" xmlns="http://www.w3.org/2000/svg">
<path d="M16.2617 0H6.73828C3.02279 0 0 3.02279 0 6.73828V16.2617C0 19.9772 3.02279 23 6.73828 23H16.2617C19.9772 23 23 19.9772 23 16.2617V6.73828C23 3.02279 19.9772 0 16.2617 0ZM22.1016 16.2617C22.1016 19.4818 19.4818 22.1016 16.2617 22.1016H6.73828C3.51819 22.1016 0.898438 19.4818 0.898438 16.2617V6.73828C0.898438 3.51819 3.51819 0.898438 6.73828 0.898438H16.2617C19.4818 0.898438 22.1016 3.51819 22.1016 6.73828V16.2617Z" fill="#303841"/>
<path d="M16.2617 1.97656H6.73828C4.11264 1.97656 1.97656 4.11264 1.97656 6.73828V16.2617C1.97656 18.8874 4.11264 21.0234 6.73828 21.0234H9.47852C9.72662 21.0234 9.92773 20.8223 9.92773 20.5742C9.92773 20.3261 9.72662 20.125 9.47852 20.125H6.73828C4.60809 20.125 2.875 18.3919 2.875 16.2617V6.73828C2.875 4.60809 4.60809 2.875 6.73828 2.875H16.2617C18.3919 2.875 20.125 4.60809 20.125 6.73828V16.2617C20.125 18.3919 18.3919 20.125 16.2617 20.125H13.5514C13.3033 20.125 13.1022 20.3261 13.1022 20.5742C13.1022 20.8223 13.3033 21.0234 13.5514 21.0234H16.2617C18.8874 21.0234 21.0234 18.8874 21.0234 16.2617V6.73828C21.0234 4.11264 18.8874 1.97656 16.2617 1.97656Z" fill="#303841"/>
<path d="M11.8176 20.2566C11.734 20.1731 11.6181 20.125 11.5 20.125C11.3819 20.125 11.266 20.1731 11.1824 20.2566C11.0988 20.3402 11.0508 20.4561 11.0508 20.5742C11.0508 20.6924 11.0988 20.8083 11.1824 20.8918C11.266 20.9754 11.3819 21.0234 11.5 21.0234C11.6181 21.0234 11.734 20.9754 11.8176 20.8918C11.9012 20.8083 11.9492 20.6924 11.9492 20.5742C11.9492 20.4561 11.9012 20.3402 11.8176 20.2566Z" fill="#303841"/>
<path d="M7.89834 6.99492C7.72867 6.81388 7.44445 6.80463 7.26337 6.97421L7.24347 6.99294C7.06302 7.1632 7.05475 7.44751 7.22505 7.62796C7.31341 7.72162 7.4325 7.76888 7.55186 7.76888C7.66246 7.76888 7.77328 7.72827 7.86007 7.64638L7.87763 7.62989C8.05867 7.46027 8.06797 7.17596 7.89834 6.99492Z" fill="#303841"/>
<path d="M11.5 5.30078C10.5133 5.30078 9.53134 5.53846 8.66017 5.98813C8.43974 6.10192 8.35327 6.37289 8.46705 6.59336C8.58089 6.81379 8.85186 6.90022 9.07229 6.78648C9.8272 6.39679 10.644 6.19922 11.5 6.19922C14.4228 6.19922 16.8008 8.57716 16.8008 11.5C16.8008 14.4228 14.4228 16.8008 11.5 16.8008C8.57716 16.8008 6.19922 14.4228 6.19922 11.5C6.19922 10.5827 6.43708 9.679 6.88711 8.88654C7.00961 8.67082 6.93405 8.39662 6.71829 8.27407C6.50253 8.15161 6.22837 8.22713 6.10583 8.44289C5.57916 9.37034 5.30078 10.4275 5.30078 11.5C5.30078 14.9182 8.08176 17.6992 11.5 17.6992C14.9182 17.6992 17.6992 14.9182 17.6992 11.5C17.6992 8.08176 14.9182 5.30078 11.5 5.30078Z" fill="#303841"/>
<path d="M11.5 7.45703C9.27071 7.45703 7.45703 9.27071 7.45703 11.5C7.45703 13.7293 9.27071 15.543 11.5 15.543C13.7293 15.543 15.543 13.7293 15.543 11.5C15.543 9.27071 13.7293 7.45703 11.5 7.45703ZM11.5 14.6445C9.76611 14.6445 8.35547 13.2339 8.35547 11.5C8.35547 9.76611 9.76611 8.35547 11.5 8.35547C13.2339 8.35547 14.6445 9.76611 14.6445 11.5C14.6445 13.2339 13.2339 14.6445 11.5 14.6445Z" fill="#303841"/>
<path d="M17.3965 3.89697C16.4552 3.89697 15.6895 4.66276 15.6895 5.604C15.6895 6.54525 16.4552 7.31104 17.3965 7.31104C18.3377 7.31104 19.1035 6.54525 19.1035 5.604C19.1035 4.66276 18.3377 3.89697 17.3965 3.89697ZM17.3965 6.4126C16.9506 6.4126 16.5879 6.04985 16.5879 5.604C16.5879 5.15815 16.9506 4.79541 17.3965 4.79541C17.8423 4.79541 18.2051 5.15815 18.2051 5.604C18.2051 6.04985 17.8423 6.4126 17.3965 6.4126Z" fill="#303841"/>
</svg>
