<svg width="24" height="23" viewBox="0 0 24 23" fill="none" xmlns="http://www.w3.org/2000/svg">
<path d="M20.381 15.3977L20.1431 15.0254C19.6783 14.2978 19.1157 13.6306 18.4711 13.0423L17.6759 12.3166C17.6003 12.2476 17.589 12.1381 17.6489 12.0562L18.7347 10.5734C18.8913 10.3596 19.0358 10.1344 19.1642 9.90415L20.0921 8.24038C20.2538 7.95045 20.2452 7.60891 20.0689 7.3268C19.8928 7.04474 19.5827 6.87606 19.2397 6.8757L17.2313 6.8735C17.2309 6.8735 17.2305 6.8735 17.2301 6.8735C16.8093 6.8735 16.4283 7.11199 16.2592 7.48124L16.0465 7.94574C15.5038 9.13082 14.763 10.2114 13.8439 11.1588V7.76776C13.8439 7.27442 13.4251 6.87305 12.9104 6.87305H10.0659C9.59887 6.87305 9.21895 7.23718 9.21895 7.68479C9.21895 7.85571 9.27394 8.01945 9.3779 8.15817L9.57694 8.42388C9.77208 8.6843 9.8752 8.99143 9.8752 9.31208V11.7899C9.52444 11.3995 9.09736 10.8693 8.73581 10.2598C8.18217 9.32632 7.78533 8.23782 7.59806 7.67203C7.43986 7.19415 6.98217 6.87305 6.45909 6.87305H4.425C4.13794 6.87305 3.87394 6.99883 3.7005 7.21814C3.5272 7.43749 3.47241 7.7152 3.55026 7.9801L3.92972 9.27071C4.16226 10.0618 4.48195 10.832 4.87987 11.5598C4.99997 11.7795 5.28319 11.8644 5.51259 11.7492C5.74195 11.6341 5.8304 11.3626 5.71026 11.1428C5.34253 10.4701 5.04708 9.75829 4.83211 9.0271L4.46297 7.77148H6.45914C6.57178 7.77148 6.67036 7.84066 6.70444 7.94367C6.90286 8.54306 7.32473 9.69877 7.92084 10.7037C8.40994 11.5283 9.00333 12.2152 9.41508 12.6463C9.64064 12.8825 9.9877 12.9602 10.2992 12.8442C10.6111 12.728 10.8127 12.4458 10.8127 12.1252V9.31208C10.8127 8.80226 10.6487 8.31392 10.3385 7.89987L10.2423 7.77148H12.9064V11.374C12.9064 11.6376 13.0445 11.8799 13.2758 12.0224C13.5071 12.1649 13.7945 12.1847 14.0447 12.0752L14.238 11.9906C14.3271 11.9517 14.4061 11.8974 14.4732 11.8292C15.4905 10.7939 16.3087 9.60879 16.905 8.30673L17.1177 7.84224C17.1373 7.79947 17.1814 7.77189 17.2301 7.77189H17.2302L19.2386 7.77409C19.2454 7.77409 19.2558 7.77413 19.2646 7.78824C19.2734 7.80239 19.2685 7.81111 19.2653 7.8169L18.3375 9.48063C18.2268 9.67905 18.1023 9.87306 17.9674 10.0573L16.8816 11.5401C16.5529 11.989 16.6151 12.5892 17.0294 12.9673L17.8246 13.693C18.4102 14.2274 18.9213 14.8336 19.3436 15.4945L19.5815 15.8669C19.5872 15.8758 19.6046 15.9031 19.5829 15.9401C19.5613 15.9772 19.5279 15.9772 19.517 15.9772H17.7831C17.5603 15.9772 17.3435 15.8894 17.1882 15.7364L15.4545 14.028C15.0459 13.6254 14.5274 13.3489 13.955 13.2285C13.6985 13.1745 13.4336 13.234 13.2288 13.3919C13.0239 13.5498 12.9065 13.7848 12.9065 14.0366V15.7152C12.9065 15.8597 12.7838 15.9772 12.633 15.9772C11.2895 15.9772 9.96187 15.5464 8.89467 14.7642C8.46473 14.4491 8.05467 14.1015 7.67587 13.7313C7.49465 13.5542 7.19789 13.5513 7.01297 13.725C6.82809 13.8987 6.82519 14.1831 7.00641 14.3603C7.41623 14.7609 7.85991 15.1369 8.32509 15.4778C9.55486 16.3792 11.0848 16.8757 12.633 16.8757C13.3007 16.8757 13.8439 16.3551 13.8439 15.7152V14.127C14.2009 14.2184 14.5237 14.3995 14.7824 14.6544L16.5161 16.3628C16.8468 16.6887 17.3086 16.8757 17.7831 16.8757H19.517C19.8832 16.8757 20.2219 16.6855 20.4008 16.3793C20.5798 16.0731 20.5722 15.697 20.381 15.3977Z" fill="#303841"/>
<path d="M6.5649 12.4682L6.5597 12.4613C6.40881 12.2597 6.11602 12.2134 5.9056 12.358C5.69523 12.5026 5.64695 12.7832 5.79779 12.9848C5.79798 12.9851 5.80079 12.9888 5.80098 12.9891L6.18395 12.73L5.80299 12.9918C5.89454 13.1141 6.0384 13.1793 6.18437 13.1793C6.27887 13.1793 6.37435 13.1519 6.45709 13.0951C6.66746 12.9505 6.71574 12.6699 6.5649 12.4682Z" fill="#303841"/>
<path d="M9.60254 19.9453H5.78223C5.52338 19.9453 5.31348 20.1464 5.31348 20.3945C5.31348 20.6426 5.52338 20.8438 5.78223 20.8438H9.60254C9.86143 20.8438 10.0713 20.6426 10.0713 20.3945C10.0713 20.1464 9.86138 19.9453 9.60254 19.9453Z" fill="#303841"/>
<path d="M11.736 19.9453H11.7305C11.4716 19.9453 11.2617 20.1464 11.2617 20.3945C11.2617 20.6426 11.4716 20.8438 11.7305 20.8438H11.736C11.9949 20.8438 12.2048 20.6426 12.2048 20.3945C12.2048 20.1464 11.9949 19.9453 11.736 19.9453Z" fill="#303841"/>
<path d="M20.9062 0H3.09375C1.38783 0 0 1.33 0 2.96484V20.0352C0 21.67 1.38783 23 3.09375 23H20.9062C22.6122 23 24 21.67 24 20.0352V2.96484C24 1.33 22.6122 0 20.9062 0ZM23.0625 20.0352C23.0625 21.1746 22.0952 22.1016 20.9062 22.1016H3.09375C1.90481 22.1016 0.9375 21.1746 0.9375 20.0352V2.96484C0.9375 1.82545 1.90481 0.898438 3.09375 0.898438H20.9062C22.0952 0.898438 23.0625 1.82545 23.0625 2.96484V20.0352Z" fill="#303841"/>
</svg>
